<svg width="600" height="600" viewBox="0 0 600 600" fill="none" xmlns="http://www.w3.org/2000/svg">
<mask id="mask0_2_526" style="mask-type:luminance" maskUnits="userSpaceOnUse" x="0" y="0" width="600" height="600">
<path d="M600 0H0V600H600V0Z" fill="white"/>
</mask>
<g mask="url(#mask0_2_526)">
<path d="M500.067 261.796C491.654 290.48 483.63 318.934 475.427 347.506C471.338 361.705 466.957 376.469 457.982 386.754C446.02 400.449 428.448 403.383 412.074 404.346C388.387 405.79 158.778 407.12 146.636 404.346C131.948 400.953 110.114 388.619 105.228 368.727C102.258 356.714 108.278 344.167 115.354 335.539C140.123 305.336 80.6472 202.786 104.451 163.219C150.183 87.2057 328.007 197.862 464.986 158.546C491.876 150.829 518.819 197.866 500.067 261.796Z" fill="url(#paint0_linear_2_526)"/>
<path d="M506.497 475.008C491.352 512.262 333.559 485.777 314.931 480.243C314.907 480.235 314.885 480.228 314.861 480.221C310.732 478.982 306.35 478.792 302.134 479.739C276.36 485.541 245.912 489.576 217.151 489.576C147.841 489.576 114.541 466.134 114.541 451.085C114.541 446.43 129.127 448.188 129.363 438.214C129.647 426.741 108.348 424.754 105.094 416.506C99.5144 402.344 193.567 402.81 193.567 402.81H368.978C368.978 402.81 496.56 399.149 504.645 415.138C512.714 431.136 442.245 437.992 442.245 437.992C442.245 437.992 513.486 457.818 506.497 475.008Z" fill="url(#paint1_linear_2_526)"/>
<path d="M405.857 190.541V420.2C405.857 424.936 402.019 428.765 397.292 428.765H214.566C209.838 428.765 206.001 424.936 206.001 420.2V190.541C206.001 185.805 209.838 181.976 214.566 181.976H397.292C402.019 181.976 405.857 185.805 405.857 190.541Z" fill="#B2C7FF"/>
<path d="M214.723 416.143V194.597C214.723 192.442 216.47 190.694 218.626 190.694H393.234C395.39 190.694 397.137 192.441 397.137 194.597V416.143C397.137 418.299 395.39 420.046 393.234 420.046H218.626C216.47 420.046 214.723 418.299 214.723 416.143Z" fill="white"/>
<path d="M340.058 178.208V198.94C340.058 200.335 338.924 201.47 337.529 201.47H274.329C272.934 201.47 271.8 200.335 271.8 198.94V178.208C271.8 176.812 272.934 175.678 274.329 175.678H295.428C296.684 171.056 300.905 167.654 305.929 167.654C310.953 167.654 315.174 171.056 316.43 175.678H337.529C338.924 175.678 340.058 176.812 340.058 178.208Z" fill="#373A50"/>
<path d="M311.84 178.529C311.84 181.793 309.194 184.439 305.93 184.439C302.666 184.439 300.019 181.793 300.019 178.529C300.019 175.265 302.666 172.618 305.93 172.618C309.194 172.618 311.84 175.265 311.84 178.529Z" fill="white"/>
<path d="M419.291 186.999L422.389 190.214C422.665 190.506 422.763 190.924 422.634 191.302C422.353 192.127 422.135 192.979 421.983 193.85C421.917 194.244 421.629 194.563 421.249 194.684L416.992 196.028C416.489 196.189 416.173 196.688 416.249 197.213L417.026 202.597C417.103 203.122 417.547 203.512 418.075 203.521L422.534 203.605C422.933 203.614 423.3 203.839 423.478 204.198C423.87 204.99 424.32 205.745 424.823 206.457C425.053 206.784 425.077 207.213 424.895 207.57L422.833 211.53C422.589 212.001 422.72 212.578 423.144 212.895L427.5 216.153C427.924 216.47 428.515 216.431 428.897 216.064L432.115 212.963C432.403 212.687 432.82 212.587 433.199 212.718C434.025 213 434.877 213.217 435.75 213.365C436.145 213.435 436.464 213.723 436.585 214.103L437.929 218.366C438.087 218.869 438.59 219.184 439.112 219.109L444.495 218.333C445.017 218.257 445.41 217.812 445.419 217.284L445.503 212.815C445.511 212.417 445.736 212.05 446.095 211.872C446.89 211.483 447.646 211.032 448.358 210.529C448.684 210.295 449.113 210.275 449.468 210.457L453.432 212.522C453.902 212.766 454.479 212.635 454.796 212.211L458.053 207.855C458.371 207.431 458.333 206.84 457.965 206.458L454.867 203.243C454.592 202.951 454.493 202.533 454.622 202.155C454.904 201.329 455.121 200.477 455.273 199.607C455.342 199.212 455.63 198.893 456.01 198.772L460.264 197.429C460.768 197.271 461.084 196.771 461.008 196.246L460.231 190.863C460.154 190.338 459.711 189.948 459.182 189.936L454.719 189.852C454.321 189.843 453.954 189.618 453.779 189.259C453.387 188.467 452.937 187.712 452.434 187C452.204 186.673 452.179 186.244 452.361 185.886L454.424 181.926C454.668 181.456 454.537 180.879 454.113 180.562L449.757 177.304C449.333 176.987 448.741 177.026 448.359 177.393L445.141 180.491C444.853 180.769 444.432 180.868 444.054 180.74C443.228 180.458 442.38 180.24 441.506 180.089C441.111 180.023 440.792 179.734 440.671 179.354L439.328 175.091C439.17 174.587 438.666 174.272 438.144 174.347L432.762 175.124C432.239 175.199 431.847 175.645 431.837 176.172L431.754 180.641C431.746 181.04 431.521 181.407 431.161 181.582C430.366 181.975 429.614 182.423 428.901 182.927C428.575 183.157 428.143 183.182 427.788 182.997L423.825 180.935C423.355 180.691 422.777 180.822 422.46 181.246L419.203 185.602C418.885 186.026 418.924 186.617 419.291 186.999ZM437.046 185.774C443.095 184.9 448.711 189.094 449.585 195.152C450.458 201.196 446.258 206.81 440.21 207.683C434.162 208.556 428.545 204.36 427.673 198.315C426.798 192.258 430.998 186.647 437.046 185.774Z" fill="url(#paint2_linear_2_526)"/>
<path d="M471.167 168.635L469.239 169.009C469.065 169.041 468.888 168.977 468.778 168.839C468.541 168.537 468.278 168.254 467.993 167.989C467.863 167.87 467.815 167.687 467.861 167.518L468.384 165.624C468.446 165.399 468.337 165.163 468.125 165.066L465.95 164.063C465.738 163.966 465.488 164.036 465.358 164.229L464.259 165.855C464.161 166.001 463.99 166.083 463.814 166.063C463.428 166.018 463.041 166.003 462.657 166.018C462.482 166.025 462.318 165.93 462.229 165.778L461.261 164.068C461.146 163.865 460.901 163.775 460.682 163.856L458.436 164.685C458.218 164.765 458.09 164.993 458.134 165.222L458.509 167.153C458.541 167.325 458.479 167.503 458.34 167.612C458.038 167.849 457.754 168.111 457.49 168.398C457.37 168.528 457.187 168.577 457.017 168.531L455.122 168.006C454.897 167.943 454.66 168.054 454.563 168.265L453.561 170.438C453.464 170.649 453.534 170.901 453.727 171.031L455.357 172.132C455.502 172.23 455.583 172.401 455.563 172.576C455.516 172.963 455.502 173.35 455.518 173.734C455.526 173.91 455.43 174.073 455.278 174.16L453.566 175.13C453.363 175.245 453.273 175.49 453.354 175.708L454.183 177.954C454.264 178.173 454.491 178.3 454.72 178.256L456.649 177.882C456.823 177.85 457.001 177.914 457.11 178.052C457.347 178.354 457.61 178.639 457.895 178.903C458.024 179.023 458.073 179.206 458.026 179.375L457.503 181.268C457.441 181.492 457.549 181.728 457.762 181.826L459.936 182.828C460.148 182.925 460.399 182.855 460.53 182.662L461.629 181.035C461.728 180.889 461.899 180.808 462.074 180.83C462.46 180.874 462.847 180.889 463.23 180.874C463.406 180.867 463.569 180.961 463.658 181.114L464.627 182.823C464.742 183.026 464.987 183.117 465.205 183.036L467.451 182.207C467.67 182.126 467.797 181.899 467.753 181.67L467.38 179.74C467.346 179.566 467.411 179.387 467.548 179.279C467.85 179.041 468.134 178.779 468.399 178.493C468.518 178.363 468.701 178.315 468.87 178.362L470.767 178.886C470.991 178.949 471.227 178.838 471.324 178.627L472.326 176.454C472.423 176.242 472.353 175.991 472.16 175.861L470.53 174.76C470.385 174.662 470.304 174.49 470.325 174.316C470.371 173.928 470.385 173.543 470.369 173.159C470.363 172.984 470.457 172.818 470.611 172.731L472.321 171.762C472.524 171.647 472.614 171.402 472.533 171.183L471.705 168.938C471.624 168.719 471.396 168.591 471.167 168.635ZM466.913 175.276C465.903 177.467 463.307 178.426 461.112 177.414C458.922 176.405 457.965 173.807 458.975 171.617C459.985 169.426 462.582 168.466 464.772 169.475C466.966 170.487 467.923 173.085 466.913 175.276Z" fill="url(#paint3_linear_2_526)"/>
<path d="M191.851 187.868C189.926 189.775 188.528 191.954 187.847 194.414H175.517C174.873 192.009 173.574 189.848 171.668 188.023C162.019 178.789 169.084 162.135 182.781 163.145C195.033 164.065 200.699 179.107 191.851 187.868Z" fill="url(#paint4_linear_2_526)"/>
<path d="M185.531 179.428C184.467 179.489 183.621 180.373 183.621 181.451V182.776C183.375 182.776 179.621 182.776 179.734 182.776V181.451C179.734 180.198 178.577 179.311 177.661 179.428C176.597 179.489 175.751 180.373 175.751 181.451C175.751 182.568 176.659 183.477 177.777 183.477H179.034V194.932C179.034 195.125 179.19 195.282 179.384 195.282C179.578 195.282 179.734 195.125 179.734 194.932V183.477C181.159 183.477 182.234 183.477 183.621 183.477V194.932C183.621 195.125 183.778 195.282 183.971 195.282C184.165 195.282 184.322 195.125 184.322 194.932V183.477H185.579C186.696 183.477 187.605 182.568 187.605 181.451C187.605 180.194 186.443 179.312 185.531 179.428ZM179.034 182.776H177.777C177.046 182.776 176.452 182.182 176.452 181.451C176.452 180.732 177.028 180.145 177.742 180.127C178.458 180.145 179.034 180.732 179.034 181.451V182.776ZM185.579 182.776H184.322V181.451C184.322 180.732 184.898 180.145 185.613 180.127C186.327 180.145 186.903 180.732 186.903 181.451C186.903 182.182 186.309 182.776 185.579 182.776Z" fill="white"/>
<path d="M187.813 194.414H175.54C175.151 194.414 174.838 194.733 174.838 195.122V198.198C174.838 198.586 175.151 198.905 175.54 198.905H187.813C188.202 198.905 188.521 198.586 188.521 198.198V195.122C188.521 194.733 188.202 194.414 187.813 194.414Z" fill="#373A50"/>
<path d="M177.479 198.905V200.592C177.479 200.89 177.721 201.127 178.014 201.127H185.339C185.637 201.127 185.875 200.89 185.875 200.592V198.905H177.479Z" fill="#373A50"/>
<path d="M181.558 155.922C181.221 155.922 180.947 156.196 180.947 156.534V159.476C180.947 159.813 181.221 160.087 181.558 160.087C181.896 160.087 182.169 159.813 182.169 159.476V156.534C182.169 156.196 181.896 155.922 181.558 155.922Z" fill="url(#paint5_linear_2_526)"/>
<path d="M173.399 158.684C173.23 158.392 172.856 158.29 172.564 158.46C172.271 158.629 172.171 159.003 172.34 159.295L173.811 161.843C173.981 162.137 174.355 162.236 174.646 162.067C174.939 161.898 175.039 161.525 174.87 161.232L173.399 158.684Z" fill="url(#paint6_linear_2_526)"/>
<path d="M169.427 166.403L166.879 164.932C166.586 164.762 166.213 164.864 166.044 165.156C165.875 165.448 165.975 165.822 166.268 165.991L168.815 167.461C169.107 167.63 169.481 167.531 169.651 167.238C169.819 166.945 169.719 166.572 169.427 166.403Z" fill="url(#paint7_linear_2_526)"/>
<path d="M197.311 164.741C197.141 164.449 196.767 164.347 196.475 164.517L193.928 165.988C193.635 166.157 193.535 166.531 193.704 166.823C193.873 167.117 194.248 167.215 194.539 167.047L197.087 165.576C197.38 165.407 197.48 165.034 197.311 164.741Z" fill="url(#paint8_linear_2_526)"/>
<path d="M190.615 158.221C190.322 158.051 189.949 158.152 189.78 158.445L188.31 160.993C188.141 161.286 188.242 161.659 188.534 161.828C188.826 161.997 189.199 161.897 189.369 161.604L190.839 159.056C191.008 158.763 190.907 158.39 190.615 158.221Z" fill="url(#paint9_linear_2_526)"/>
<g opacity="0.38456">
<path d="M354.986 276.774C354.986 279.318 352.922 281.383 350.376 281.383C347.83 281.383 345.766 279.318 345.766 276.774C345.766 274.238 347.83 272.163 350.376 272.163C352.922 272.163 354.986 274.238 354.986 276.774Z" fill="#FF4129"/>
<path d="M350.372 269.586C348.258 269.586 346.529 267.93 346.434 265.817L345.038 236.173C344.902 233.134 347.324 230.588 350.376 230.588C353.324 230.588 355.722 232.986 355.722 235.933V236.132L354.318 265.817C354.214 267.932 352.482 269.586 350.372 269.586Z" fill="#FF4129"/>
</g>
<path d="M348.62 392.365H265.91C265.91 369.526 284.427 351.01 307.266 351.01C330.104 351.01 348.62 369.526 348.62 392.365Z" fill="#D1DEFF"/>
<path d="M342.942 330.558L331.095 351.074C324.085 347.014 315.949 344.682 307.266 344.682V321.003C320.262 321.003 332.451 324.484 342.942 330.558Z" fill="#EEEEEE"/>
<path d="M378.619 392.357H354.94C354.94 383.674 352.601 375.538 348.549 368.527L369.064 356.68C375.138 367.171 378.619 379.36 378.619 392.357Z" fill="#EEEEEE"/>
<path d="M265.974 368.527C261.914 375.538 259.582 383.674 259.582 392.357H235.903C235.903 379.36 239.385 367.171 245.459 356.68L265.974 368.527Z" fill="#EEEEEE"/>
<path d="M369.064 356.68L348.549 368.527C344.362 361.287 338.335 355.261 331.095 351.074L342.942 330.558C353.774 336.823 362.799 345.848 369.064 356.68Z" fill="#EEEEEE"/>
<path d="M307.266 321.003V344.682C298.574 344.682 290.438 347.014 283.428 351.074L271.581 330.558C282.072 324.484 294.26 321.003 307.266 321.003Z" fill="#EEEEEE"/>
<path d="M283.428 351.074C276.188 355.261 270.161 361.287 265.974 368.527L245.459 356.68C251.724 345.848 260.749 336.823 271.581 330.558L283.428 351.074Z" fill="#EEEEEE"/>
<path d="M342.942 330.558L331.095 351.074C324.085 347.014 315.949 344.682 307.266 344.682V321.003C320.262 321.003 332.451 324.484 342.942 330.558Z" fill="#EAC250"/>
<path d="M378.619 392.357H354.94C354.94 383.674 352.601 375.538 348.549 368.527L369.064 356.68C375.138 367.171 378.619 379.36 378.619 392.357Z" fill="#E24067"/>
<path d="M265.974 368.527C261.914 375.538 259.582 383.674 259.582 392.357H235.903C235.903 379.36 239.385 367.171 245.459 356.68L265.974 368.527Z" fill="#3DCFA4"/>
<path d="M369.064 356.68L348.549 368.527C344.362 361.287 338.335 355.261 331.095 351.074L342.942 330.558C353.774 336.823 362.799 345.848 369.064 356.68Z" fill="#F34B6D"/>
<path d="M307.266 321.003V344.682C298.574 344.682 290.438 347.014 283.428 351.074L271.581 330.558C282.072 324.484 294.26 321.003 307.266 321.003Z" fill="#FADF68"/>
<path d="M283.428 351.074C276.188 355.261 270.161 361.287 265.974 368.527L245.459 356.68C251.724 345.848 260.749 336.823 271.581 330.558L283.428 351.074Z" fill="#30BB93"/>
<path d="M315.907 387.721C315.926 392.66 311.937 396.678 306.998 396.697C302.059 396.715 298.04 392.727 298.022 387.788C298.003 382.849 301.992 378.831 306.931 378.812C311.87 378.794 315.888 382.782 315.907 387.721Z" fill="#111228"/>
<path d="M312.701 391.578L306.131 380.936L351.366 360.526L312.701 391.578Z" fill="#111228"/>
<path d="M241.443 404.942H238.134V399.062C238.134 398.664 237.809 398.354 237.422 398.36C237.042 398.366 236.738 398.67 236.738 399.062V405.451C236.738 405.948 237.14 406.338 237.625 406.338H241.443C241.83 406.338 242.146 406.036 242.146 405.645C242.146 405.258 241.835 404.942 241.443 404.942Z" fill="#B2C7FF"/>
<path d="M246.466 398.304C244.144 398.304 242.529 399.906 242.482 402.379C242.528 404.822 244.125 406.446 246.466 406.446C248.842 406.446 250.404 404.766 250.451 402.371C250.405 400.035 248.888 398.304 246.466 398.304ZM246.466 405.113C244.84 405.113 243.879 403.948 243.879 402.375C243.879 400.823 244.816 399.637 246.466 399.637C248.088 399.637 249.054 400.798 249.054 402.375C249.054 403.976 248.066 405.113 246.466 405.113Z" fill="#B2C7FF"/>
<path d="M260.26 398.894L258.653 404.178L257.036 398.917C256.926 398.551 256.582 398.34 256.227 398.361C255.912 398.379 255.615 398.582 255.516 398.915L253.899 404.178L252.291 398.892C252.112 398.316 251.454 398.207 251.109 398.555C250.902 398.764 250.894 399.015 250.968 399.288L253.078 405.77C253.228 406.185 253.553 406.394 253.912 406.391C254.285 406.389 254.628 406.143 254.743 405.761L256.276 400.907L257.807 405.759C257.919 406.134 258.26 406.392 258.642 406.392C259.005 406.392 259.322 406.185 259.475 405.764L261.587 399.278C261.661 399.004 261.641 398.754 261.442 398.554C261.086 398.199 260.438 398.324 260.26 398.894Z" fill="#B2C7FF"/>
<path d="M359.742 399.062V401.714H356.082V399.062C356.082 398.67 355.766 398.359 355.379 398.36C355 398.361 354.686 398.662 354.686 399.062V405.699C354.686 406.086 354.982 406.378 355.358 406.39C355.748 406.401 356.082 406.104 356.082 405.699V403.046H359.742V405.699C359.742 406.085 360.042 406.392 360.434 406.392C360.815 406.392 361.138 406.098 361.138 405.699V399.062C361.138 398.666 360.822 398.362 360.434 398.362C360.042 398.362 359.742 398.672 359.742 399.062Z" fill="#B2C7FF"/>
<path d="M362.806 399.062V405.699C362.806 406.087 363.11 406.392 363.499 406.392C363.886 406.392 364.203 406.09 364.203 405.699V399.062C364.203 398.669 363.886 398.362 363.505 398.36C363.12 398.358 362.806 398.663 362.806 399.062Z" fill="#B2C7FF"/>
<path d="M371.762 401.8H369.642C369.282 401.8 368.992 402.09 368.992 402.45C368.992 402.805 369.277 403.1 369.642 403.1H371.208V404.712C370.69 404.971 370.128 405.102 369.534 405.102C367.848 405.102 366.818 403.978 366.818 402.386C366.818 400.626 367.958 399.669 369.481 399.669C370.176 399.669 370.788 399.828 371.494 400.248C371.762 400.386 372.102 400.333 372.294 400.132C372.618 399.793 372.466 399.254 372.162 399.111C371.205 398.507 370.358 398.304 369.373 398.304C367.154 398.304 365.421 399.947 365.421 402.386C365.421 404.77 367.045 406.446 369.406 406.446C370.274 406.446 371.133 406.235 371.958 405.823C372.263 405.68 372.486 405.362 372.486 404.967V402.526C372.486 402.113 372.156 401.8 371.762 401.8Z" fill="#B2C7FF"/>
<path d="M379.761 398.362C379.373 398.363 379.07 398.669 379.07 399.062V401.714H375.411V399.062C375.411 398.657 375.074 398.345 374.679 398.361C374.309 398.376 374.014 398.676 374.014 399.062V405.699C374.014 406.085 374.31 406.377 374.683 406.389C375.072 406.403 375.411 406.109 375.411 405.699V403.046H379.07V405.699C379.07 406.085 379.371 406.392 379.763 406.392C380.144 406.392 380.466 406.098 380.466 405.699V399.062C380.466 398.665 380.149 398.362 379.761 398.362Z" fill="#B2C7FF"/>
<path d="M292.213 306.66H291.822C291.414 306.66 291.067 306.926 290.906 307.288L288.416 313.498L285.922 307.282C285.767 306.934 285.422 306.66 285.01 306.66H284.619C284.066 306.66 283.642 307.114 283.642 307.65V314.71C283.642 315.126 283.955 315.423 284.333 315.447C284.754 315.474 285.136 315.162 285.136 314.71V309.066L287.466 314.826C287.63 315.216 288.01 315.451 288.415 315.451C288.823 315.451 289.203 315.213 289.366 314.824L291.696 309.066V314.71C291.696 315.129 292.034 315.451 292.448 315.451C292.861 315.451 293.19 315.131 293.19 314.71V307.65C293.19 307.112 292.762 306.66 292.213 306.66Z" fill="#B2C7FF"/>
<path d="M300.38 312.014C300.38 310.241 299.222 308.824 297.357 308.824C295.388 308.824 294.321 310.322 294.321 312.167C294.321 314.318 295.596 315.51 297.594 315.51C298.433 315.51 299.005 315.393 299.767 314.962C300.296 314.656 300.264 314.128 299.97 313.858C299.754 313.66 299.437 313.621 299.192 313.742C298.674 314.002 298.235 314.087 297.688 314.087C296.724 314.087 296.057 313.679 295.863 312.754H299.628C300.09 312.754 300.38 312.416 300.38 312.014ZM295.85 311.462C295.984 310.606 296.648 310.153 297.35 310.155C298.088 310.158 298.741 310.624 298.874 311.462H295.85Z" fill="#B2C7FF"/>
<path d="M305.899 307.034V309.459C305.366 309.038 304.758 308.824 304.086 308.824C302.451 308.824 301.014 310.135 301.014 312.167C301.014 314.205 302.454 315.51 304.086 315.51C304.765 315.51 305.378 315.293 305.914 314.863C305.978 315.181 306.265 315.437 306.626 315.449C307.043 315.463 307.394 315.149 307.394 314.71V307.034C307.394 306.604 307.054 306.272 306.626 306.285C306.246 306.297 305.899 306.587 305.899 307.034ZM305.899 313.327C305.463 313.78 304.886 314.087 304.24 314.087C303.231 314.087 302.51 313.459 302.51 312.167C302.51 310.874 303.231 310.247 304.24 310.247C304.888 310.247 305.466 310.558 305.899 311.008V313.327Z" fill="#B2C7FF"/>
<path d="M308.845 309.636V314.71C308.845 315.138 309.179 315.451 309.586 315.451C309.99 315.451 310.338 315.14 310.338 314.71V309.636C310.338 309.185 309.998 308.886 309.592 308.886C309.168 308.886 308.845 309.215 308.845 309.636Z" fill="#B2C7FF"/>
<path d="M309.632 306.459H309.562C309.138 306.459 308.75 306.781 308.75 307.318C308.75 307.769 309.114 308.13 309.562 308.13H309.632C310.061 308.13 310.445 307.806 310.445 307.271C310.445 306.815 310.075 306.459 309.632 306.459Z" fill="#B2C7FF"/>
<path d="M316.046 309.625V313.098C315.582 313.665 315.05 314.099 314.315 314.099C313.57 314.099 313.224 313.707 313.224 312.866V309.625C313.224 309.195 312.888 308.89 312.49 308.886C312.087 308.882 311.73 309.187 311.73 309.625V312.983C311.73 314.374 312.6 315.51 314.056 315.51C314.791 315.51 315.385 315.3 316.046 314.714C316.055 315.127 316.39 315.449 316.799 315.449C317.214 315.449 317.541 315.119 317.541 314.698V309.625C317.541 309.198 317.206 308.886 316.801 308.886C316.391 308.885 316.046 309.2 316.046 309.625Z" fill="#B2C7FF"/>
<path d="M326.274 308.824C325.364 308.824 324.642 309.166 324.123 309.842C323.748 309.236 323.114 308.824 322.287 308.824C321.497 308.824 320.99 309.051 320.482 309.554C320.444 309.176 320.116 308.878 319.714 308.888C319.306 308.898 318.992 309.222 318.992 309.636V314.71C318.992 315.148 319.336 315.447 319.731 315.449C320.13 315.45 320.486 315.148 320.486 314.71V311.222C321.001 310.4 321.472 310.235 321.98 310.235C322.63 310.235 322.978 310.476 322.978 311.517V314.71C322.978 315.146 323.318 315.448 323.718 315.449C324.125 315.45 324.472 315.138 324.472 314.71V311.222C324.986 310.401 325.456 310.235 325.966 310.235C326.618 310.235 326.963 310.481 326.963 311.517V314.71C326.963 315.137 327.298 315.451 327.705 315.451C328.109 315.451 328.458 315.14 328.458 314.71V311.304C328.458 310.005 327.692 308.824 326.274 308.824Z" fill="#B2C7FF"/>
<mask id="mask1_2_526" style="mask-type:luminance" maskUnits="userSpaceOnUse" x="-56" y="-63" width="656" height="663">
<path d="M2.78053e-06 2.07037e-05H600V600H2.78053e-06V2.07037e-05ZM-38.3504 -62.2496C-47.96 -62.2496 -55.7504 -54.516 -55.7504 -44.9752C-55.7504 -35.4344 -47.96 -27.7 -38.3504 -27.7C-28.7408 -27.7 -21.3504 -34.7504 -21.3504 -45C-21.3504 -55.2 -28.7408 -62.2496 -38.3504 -62.2496Z" fill="white"/>
</mask>
<g mask="url(#mask1_2_526)">
<path d="M284.09 232.477L261.534 255.033V223.126C270.337 223.126 278.309 226.696 284.09 232.477Z" fill="#EFEFEF"/>
<path d="M289.89 269.556L261.534 255.033L284.09 232.477C293.844 242.232 296.252 257.234 289.89 269.556Z" fill="#EFEFEF"/>
<path d="M289.89 269.556C284.617 279.861 273.906 286.919 261.534 286.919V255.033L289.89 269.556Z" fill="#EFEFEF"/>
<path d="M261.534 255.033V286.919C243.927 286.919 229.647 272.639 229.647 255.033H261.534Z" fill="#EFEFEF"/>
<path d="M261.53 223.136C243.918 223.136 229.641 237.414 229.641 255.026H261.53V223.136Z" fill="#EFEFEF"/>
<path d="M261.53 272.265C252.01 272.265 244.293 264.546 244.293 255.026C244.293 245.506 252.01 237.789 261.53 237.789C284.321 237.789 284.353 272.265 261.53 272.265Z" fill="#EFEFEF"/>
</g>
<path d="M284.09 232.477L261.534 255.033V223.126C270.337 223.126 278.309 226.696 284.09 232.477Z" fill="url(#paint10_linear_2_526)"/>
<path d="M289.89 269.556L261.534 255.033L284.09 232.477C293.844 242.232 296.252 257.234 289.89 269.556Z" fill="url(#paint11_linear_2_526)"/>
<path d="M289.89 269.556C284.617 279.861 273.906 286.919 261.534 286.919V255.033L289.89 269.556Z" fill="url(#paint12_linear_2_526)"/>
<path d="M261.534 255.033V286.919C243.927 286.919 229.647 272.639 229.647 255.033H261.534Z" fill="url(#paint13_linear_2_526)"/>
<path d="M261.53 223.136C243.918 223.136 229.641 237.414 229.641 255.026H261.53V223.136Z" fill="url(#paint14_linear_2_526)"/>
<path d="M261.53 272.265C252.01 272.265 244.293 264.546 244.293 255.026C244.293 245.506 252.01 237.789 261.53 237.789C284.321 237.789 284.353 272.265 261.53 272.265Z" fill="white"/>
<path d="M254.8 280.8L248 296H228.4" stroke="black" stroke-width="2" stroke-linecap="round" stroke-linejoin="round"/>
<path d="M272 232.8L277.8 218.2H301" stroke="black" stroke-width="2" stroke-linecap="round" stroke-linejoin="round"/>
<path d="M232.668 295.715C232.668 298.015 230.802 299.882 228.502 299.882C226.201 299.882 224.346 298.015 224.346 295.715C224.346 293.415 226.201 291.548 228.502 291.548C230.802 291.548 232.668 293.415 232.668 295.715Z" fill="#FF4129"/>
<path d="M305.179 218.077C305.179 220.377 303.312 222.243 301.012 222.243C298.712 222.243 296.857 220.377 296.857 218.077C296.857 215.777 298.712 213.909 301.012 213.909C303.312 213.909 305.179 215.777 305.179 218.077Z" fill="#FF4129"/>
<path d="M438.062 197.654C438.782 198.158 439.238 198.542 439.422 198.814C439.598 199.086 439.694 199.374 439.694 199.678C439.694 199.974 439.614 200.246 439.47 200.51C439.318 200.766 439.11 200.982 438.854 201.142C438.67 201.254 438.406 201.342 438.062 201.398V197.654ZM436.558 194.87C436.358 194.582 436.254 194.262 436.254 193.926C436.254 193.566 436.366 193.27 436.59 193.03C436.814 192.798 437.158 192.646 437.614 192.59V195.806C437.118 195.478 436.766 195.166 436.558 194.87ZM435.166 201.302C435.622 201.486 436.03 201.622 436.406 201.702C436.782 201.782 437.182 201.83 437.614 201.846V202.734H438.062V201.846C438.918 201.774 439.59 201.494 440.07 201.014C440.55 200.526 440.79 199.966 440.79 199.326C440.79 198.758 440.63 198.278 440.294 197.894C439.966 197.51 439.222 196.91 438.062 196.102V192.59C438.702 192.654 439.182 192.854 439.502 193.19C439.822 193.534 440.014 194.07 440.07 194.798H440.342V192.734C439.59 192.446 439.15 192.286 439.014 192.254C438.758 192.19 438.438 192.142 438.062 192.126V191.486H437.614V192.126C436.83 192.214 436.23 192.47 435.806 192.894C435.39 193.318 435.174 193.814 435.174 194.374C435.174 194.878 435.294 195.31 435.542 195.654C435.886 196.15 436.582 196.718 437.614 197.358V201.398C436.934 201.334 436.414 201.134 436.07 200.798C435.726 200.462 435.526 199.974 435.47 199.342H435.166V201.302Z" fill="#FADF68"/>
<path d="M117.712 470.782L115.364 480.592C114.961 482.663 116.501 484.603 118.609 484.673C127.265 484.963 144.279 484.675 147.421 484.647C147.671 484.645 147.87 484.447 147.882 484.197C148.022 481.195 146.03 479.288 143.093 477.812L131.769 470.186C131.748 470.174 131.724 470.168 131.699 470.169L117.712 470.782Z" fill="#373A50"/>
<path d="M117.71 470.781C117.838 473.687 131.826 473.075 131.699 470.169L131.976 458.68L118.878 458.273L117.71 470.781Z" fill="#FFDAD9"/>
<path d="M116.52 465.493C116.52 467.308 132.441 467.308 132.441 465.493L141.35 420.938C141.482 420.408 141.582 419.861 141.64 419.306C141.64 419.298 141.64 419.298 141.64 419.298C141.682 418.925 141.698 418.552 141.698 418.17C141.698 412.054 136.709 407.098 130.559 407.098C124.841 407.098 120.125 411.382 119.495 416.902L119.42 418.17V418.228L116.52 465.493Z" fill="#373A50"/>
<path d="M119.495 417.962C119.581 424.069 124.631 428.954 130.772 428.868C136.142 428.793 140.572 424.934 141.537 419.881C141.567 419.698 141.598 419.524 141.629 419.333L145.628 394.724C146.845 387.234 147.706 379.654 147.622 372.066L148.499 340.193L122.332 341.496L119.538 416.817C119.538 416.826 119.538 416.826 119.538 416.826L119.502 417.812C119.494 417.862 119.494 417.912 119.495 417.962Z" fill="#373A50"/>
<path d="M164.759 470.782L162.411 480.592C162.008 482.663 163.548 484.603 165.656 484.673C174.312 484.963 191.326 484.675 194.468 484.647C194.718 484.645 194.918 484.447 194.93 484.197C195.07 481.195 193.077 479.288 190.14 477.812L178.816 470.186C178.795 470.174 178.771 470.168 178.746 470.169L164.759 470.782Z" fill="#373A50"/>
<path d="M164.758 470.781C164.885 473.687 178.874 473.075 178.746 470.169L177.023 458.28L163.925 457.873L164.758 470.781Z" fill="#FFDAD9"/>
<path d="M186.657 317.963C187.231 318.87 187.946 319.623 188.758 320.214C191.406 322.13 195.049 322.354 197.978 320.5C200.704 318.774 202.07 315.706 201.748 312.702C201.714 312.403 201.664 312.106 201.606 311.814C200.233 304.897 184.446 288.967 184.446 288.967L171.228 294.806L185.654 315.674C185.658 315.68 185.656 315.691 185.66 315.698C185.871 316.478 186.202 317.246 186.657 317.963Z" fill="#FFDAD9"/>
<path d="M147.988 340.656L147.622 372.591C147.599 380.231 148.532 387.859 149.829 395.389L153.897 419.015C153.938 419.686 154.054 420.34 154.229 420.971C155.464 425.512 159.624 428.86 164.572 428.86C170.49 428.86 175.288 424.07 175.288 418.169C175.288 418.053 175.288 417.937 175.28 417.821L175.23 417.075C175.23 417.067 175.23 417.051 175.222 413.043L171.269 339.629L147.988 340.656Z" fill="#373A50"/>
<path d="M111.97 318.341C111.375 319.28 110.635 320.062 109.793 320.674C107.05 322.658 103.275 322.891 100.241 320.969C97.416 319.18 96.0008 316.002 96.3336 312.889C96.3688 312.579 96.4216 312.271 96.4808 311.968C97.904 304.802 106.986 291.898 106.986 291.898L120.682 297.949L113.01 315.968C113.006 315.975 113.007 315.986 113.003 315.993C112.785 316.802 112.442 317.598 111.97 318.341Z" fill="#FFDAD9"/>
<path d="M153.881 418.17C153.881 418.601 153.906 419.031 153.964 419.454C154.006 419.827 154.063 420.2 154.154 420.557L162.998 466.14C163.047 467.425 178.877 466.786 178.827 465.493L175.255 417.614C174.974 411.962 170.299 407.47 164.581 407.47C158.671 407.47 153.881 412.261 153.881 418.17Z" fill="#373A50"/>
<path d="M103.554 290.378C103.554 290.378 113.22 272.618 118.057 267.879C122.422 263.603 154.61 254.001 172.113 268.557C175.25 271.166 187.602 290.722 187.602 290.722L174.281 302.236L172.791 299.234L173.086 344.207C172.94 347.322 119.66 346.419 119.806 343.305L124.338 295.032L120.661 298.934C120.019 300.218 102.913 291.662 103.554 290.378Z" fill="#51D1FE"/>
<path d="M142.739 320.306C142.598 322.71 140.534 324.552 138.13 324.41C138.13 324.41 128.638 324.978 104.086 322.209L104.014 322.205C99.376 321.891 95.8528 317.901 96.1264 313.253C96.4016 308.589 100.41 305.019 105.082 305.294C105.194 305.301 105.298 305.307 105.41 305.322L105.412 305.274L105.799 305.368C106.308 305.438 106.798 305.556 107.27 305.712L138.97 315.725C141.213 316.025 142.874 318.014 142.739 320.306Z" fill="#FFDAD9"/>
<path d="M142.608 328.925H165.637C166.537 328.925 167.31 328.34 167.563 327.471L176.503 296.419C176.866 295.14 175.903 293.861 174.561 293.861H151.532C150.647 293.861 149.858 294.445 149.606 295.314L140.682 326.366C140.302 327.645 141.266 328.925 142.608 328.925Z" fill="#111228"/>
<path d="M152.094 323.645C147.251 332.1 137.729 324.711 137.108 324.216C137.1 324.208 137.092 324.208 137.076 324.191C135.806 323.409 134.976 321.981 135.014 320.382C135.071 318.006 137.021 316.108 139.397 316.124C139.405 316.116 139.413 316.117 139.421 316.117C139.858 315.887 144.542 313.47 145.466 315.285C146.078 316.5 144.684 316.922 143.631 317.098C146.824 316.774 156.285 316.326 152.094 323.645Z" fill="#FFDAD9"/>
<path d="M192.543 284.094C190.234 283.826 188.138 285.478 187.87 287.787C187.87 287.787 187.185 288.031 185.702 311.83L185.694 311.899C185.215 316.36 188.417 320.377 192.88 320.896C197.359 321.416 201.424 318.204 201.945 313.718C201.958 313.61 201.97 313.51 201.974 313.402L202.02 313.408L201.995 313.024C202.014 312.529 201.984 312.043 201.915 311.569L196.266 288.444C196.356 286.262 194.744 284.35 192.543 284.094Z" fill="#FFDAD9"/>
<path d="M196.7 273.8V267.2" stroke="#FFDAD9" stroke-width="2" stroke-linecap="round" stroke-linejoin="round"/>
<path d="M192.537 273.043C183.689 276.228 189.116 286.518 189.482 287.191C189.489 287.199 189.488 287.207 189.501 287.225C190.032 288.563 191.249 289.591 192.776 289.823C195.044 290.167 197.175 288.632 197.557 286.371C197.566 286.364 197.566 286.357 197.567 286.349C197.859 285.971 200.942 281.926 199.372 280.743C198.32 279.959 197.683 281.213 197.341 282.184C198.184 279.203 200.195 270.286 192.537 273.043Z" fill="#FFDAD9"/>
<path d="M140.351 244.354L140.486 261.065C140.486 261.065 142.313 269.15 149.019 269.894C155.717 270.638 153.73 260.515 153.73 260.515C153.586 259.974 153.477 259.442 153.409 258.926C152.707 254.139 154.745 250.706 154.745 250.706L152.614 248.362L148.664 244.016L140.351 244.354Z" fill="#FFDAD9"/>
<path d="M144.013 248.954C146.982 254.494 153.409 258.926 153.409 258.926C152.707 254.139 154.745 250.706 154.745 250.706L152.614 248.362L149.992 245.817C149.992 245.817 141.036 243.415 144.013 248.954Z" fill="#FECDCB"/>
<path d="M135.632 239.405C135.41 243.056 139.317 244.137 140.191 244.325C140.26 244.342 140.294 244.342 140.328 244.359C140.345 244.359 140.346 244.359 140.362 244.359C140.362 244.359 150.87 260.077 159.458 255.654C163.898 253.358 163.23 240.125 162.612 233.542C162.39 231.297 162.183 229.823 162.183 229.823C162.183 229.823 156.973 222.538 147.922 223.138C138.871 223.755 139.814 238.137 139.814 238.137C139.814 238.137 135.855 236.062 135.632 239.405Z" fill="#FFDAD9"/>
<path d="M135.632 239.405C135.855 236.062 139.814 238.137 139.814 238.137C139.814 238.137 139.162 240.502 140.362 240.674C141.546 240.862 142.574 232.446 142.574 232.446C142.574 232.446 154.813 236.182 162.612 233.542C165.132 232.702 167.189 231.195 168.217 228.675C172.434 218.356 161.378 212.648 156.166 213.882C150.955 215.117 150.888 216.659 144.922 217.156C144.922 217.156 134.278 215.768 131.295 226.344C128.313 236.92 140.362 249.87 140.362 249.87V244.359C140.346 244.359 140.345 244.359 140.328 244.359C140.294 244.359 140.242 244.342 140.191 244.325C139.317 244.137 135.41 243.056 135.632 239.405Z" fill="#111228"/>
<path d="M155.714 238.429C156.242 240.188 156.452 241.834 156.782 242.555C156.919 242.867 157.104 243.125 157.362 243.359C158.029 244.023 158.383 244.511 157.873 245.411C157.673 245.733 157.415 245.99 157.143 246.228C158.23 244.786 157.882 244.302 157.105 243.638C156.821 243.399 156.571 243.066 156.418 242.72C156.012 241.786 155.762 239.203 155.714 238.429Z" fill="#111228"/>
<path d="M154.682 249.438C154.9 250.797 156.038 251.745 157.219 251.555C158.394 251.366 159.178 250.11 158.96 248.752C158.956 248.727 158.947 248.71 158.944 248.692C157.79 249.166 156.37 249.394 154.678 249.376C154.682 249.394 154.678 249.414 154.682 249.438Z" fill="white"/>
<path d="M160.176 236.554C159.246 236.408 158.879 236.165 158.238 236.72C158.084 236.906 157.902 237.093 157.668 237.275C157.692 236.993 157.748 236.703 157.867 236.435C158.207 235.802 158.945 235.628 159.551 235.966C159.818 236.106 160.011 236.318 160.176 236.554Z" fill="#111228"/>
<path d="M152.206 237.614C151.275 237.468 150.909 237.225 150.268 237.78C150.114 237.966 149.932 238.152 149.698 238.334C149.722 238.052 149.778 237.762 149.897 237.494C150.236 236.863 150.973 236.686 151.581 237.026C151.849 237.166 152.041 237.378 152.206 237.614Z" fill="#111228"/>
<path d="M158.017 238.934C157.706 237.935 158.136 237.086 158.797 236.881C159.595 236.635 160.354 237.309 160.606 238.136L159.84 238.368C159.72 237.972 159.354 237.545 159.034 237.645C158.697 237.75 158.666 238.33 158.781 238.696L158.017 238.934Z" fill="#FECDCB"/>
<path d="M150.629 240.119C150.306 239.082 150.778 238.262 151.417 238.065C152.139 237.84 152.934 238.39 153.223 239.317L152.459 239.556C152.295 239.031 151.898 238.75 151.653 238.829C151.324 238.93 151.268 239.48 151.393 239.881L150.629 240.119Z" fill="#FECDCB"/>
<path d="M151.011 240C151.231 240.706 151.81 241.146 152.318 240.99C152.822 240.84 153.055 240.142 152.842 239.436C152.622 238.737 152.037 238.291 151.534 238.447C151.026 238.604 150.791 239.294 151.011 240Z" fill="#111228"/>
<path d="M158.398 238.814C158.612 239.521 159.198 239.961 159.7 239.805C160.21 239.654 160.443 238.958 160.223 238.252C160.01 237.552 159.424 237.106 158.915 237.262C158.413 237.418 158.178 238.109 158.398 238.814Z" fill="#111228"/>
<path d="M484.308 447.066L486.42 455.889C486.782 457.75 485.398 459.495 483.502 459.558C475.718 459.819 460.417 459.562 457.592 459.536C457.366 459.534 457.187 459.355 457.177 459.13C457.05 456.431 458.844 454.716 461.485 453.389L471.667 446.531C471.686 446.52 471.709 446.515 471.73 446.516L484.308 447.066Z" fill="#373A50"/>
<path d="M484.31 447.066C484.195 449.679 471.616 449.13 471.73 446.516L471.482 436.184L483.26 435.818L484.31 447.066Z" fill="#FFDAD9"/>
<path d="M485.38 442.311C485.38 443.943 471.063 443.943 471.063 442.311L463.052 402.245C462.933 401.768 462.843 401.276 462.791 400.777C462.791 400.77 462.791 400.77 462.791 400.77C462.754 400.434 462.739 400.098 462.739 399.756C462.739 394.255 467.226 389.798 472.755 389.798C477.898 389.798 482.138 393.651 482.705 398.615L482.772 399.756V399.808L485.38 442.311Z" fill="#373A50"/>
<path d="M482.704 399.569C482.626 405.061 478.086 409.454 472.564 409.376C467.735 409.308 463.751 405.838 462.883 401.294C462.856 401.13 462.828 400.974 462.801 400.802L459.205 378.672C458.11 371.937 457.336 365.121 457.412 358.298L456.622 333.231L480.154 334.403L482.666 398.539C482.666 398.547 482.666 398.546 482.666 398.546L482.698 399.434C482.706 399.479 482.705 399.524 482.704 399.569Z" fill="#373A50"/>
<path d="M442.001 447.066L444.113 455.889C444.475 457.75 443.09 459.495 441.194 459.558C433.41 459.819 418.11 459.562 415.285 459.536C415.059 459.534 414.88 459.355 414.87 459.13C414.743 456.431 416.537 454.716 419.178 453.389L429.36 446.531C429.379 446.52 429.402 446.515 429.423 446.516L442.001 447.066Z" fill="#373A50"/>
<path d="M442.002 447.066C441.888 449.679 429.309 449.13 429.423 446.516L430.774 436.184L442.553 435.818L442.002 447.066Z" fill="#FFDAD9"/>
<path d="M451.783 399.756C451.783 400.143 451.761 400.531 451.709 400.911C451.671 401.246 451.62 401.582 451.538 401.902L443.585 442.893C443.54 444.048 429.306 443.474 429.35 442.311L432.562 399.256C432.816 394.174 437.019 390.134 442.162 390.134C447.475 390.134 451.783 394.442 451.783 399.756Z" fill="#373A50"/>
<path d="M457.082 333.649L457.412 358.769C457.432 365.639 456.593 372.498 455.427 379.27L451.769 400.515C451.731 401.119 451.627 401.707 451.47 402.274C450.36 406.358 446.619 409.369 442.17 409.369C436.848 409.369 432.533 405.062 432.533 399.755C432.533 399.65 432.533 399.546 432.54 399.442L432.585 398.771C432.585 398.763 432.586 398.749 432.593 398.742L436.147 332.725L457.082 333.649Z" fill="#373A50"/>
<path d="M422.931 298.529C422.53 299.422 422.316 300.346 422.275 301.262C422.15 304.241 423.812 307.126 426.698 308.422C429.384 309.628 432.406 309.124 434.531 307.367C434.742 307.191 434.942 307.003 435.135 306.812C439.708 302.286 444.776 289.347 444.776 289.347L433.679 282.226L424.17 296.614C424.166 296.62 424.158 296.623 424.154 296.63C423.666 297.183 423.249 297.822 422.931 298.529Z" fill="#FFDAD9"/>
<path d="M445.212 270.98C439.219 274.128 433.19 281.877 428.793 287.394C427.934 288.54 440.725 298.235 441.583 297.09L445.212 270.98Z" fill="#EAC250"/>
<path d="M395.228 304.69C395.123 306.807 396.755 308.616 398.873 308.721C398.873 308.721 407.129 310.122 428.886 310.034L428.95 310.037C433.039 310.204 436.504 307.046 436.706 302.951C436.91 298.842 433.739 295.335 429.623 295.131C429.525 295.126 429.434 295.122 429.334 295.124L429.337 295.082L428.989 295.128C428.537 295.141 428.097 295.197 427.669 295.289L398.963 301.037C396.972 301.086 395.328 302.67 395.228 304.69Z" fill="#FFDAD9"/>
<path d="M442.686 241.518C443.088 243.638 443.708 245.819 445.187 247.39C445.89 248.138 446.912 248.745 447.906 248.486C448.91 248.225 449.5 247.191 449.829 246.207C450.691 243.626 450.504 240.711 449.319 238.262C448.592 236.758 447.445 235.388 445.902 234.747C444.844 234.308 441.822 234.056 441.44 235.625C441.265 236.342 441.942 237.609 442.098 238.331C442.326 239.387 442.484 240.457 442.686 241.518Z" fill="#111228"/>
<path d="M493.738 273.014C492.883 275.418 490.845 277.266 488.547 278.366C486.242 279.466 483.678 279.894 481.142 280.146C472.687 280.98 464.154 279.985 455.783 278.521C453.107 278.058 450.425 277.54 447.938 276.447C445.458 275.354 443.174 273.624 441.885 271.235C440.596 268.854 440.456 265.75 441.941 263.487C443.433 261.225 447.146 259.901 449.521 261.211C450.298 261.799 451.202 262.191 452.232 262.346C453.132 262.478 454.07 262.357 454.151 262.318C455.519 262.145 457.09 261.339 458.242 260.581C459.671 259.672 460.815 258.61 461.857 257.603C463.271 256.19 464.258 254.904 464.337 254.808C464.337 254.808 467.945 253.631 468.05 250.381C468.141 247.494 465.304 248.637 464.666 248.931L464.603 248.693L464.596 248.678C464.596 248.686 464.603 248.699 464.596 248.714C464.568 248.854 464.554 248.945 464.547 248.973C464.547 248.98 464.547 248.979 464.547 248.986C464.33 249.379 463.566 249.477 463.195 249.106C462.74 248.657 462.712 247.943 462.649 247.306C462.173 242.808 457.913 239.032 453.394 239.11C451.818 239.138 450.277 239.572 448.736 239.908C447.664 240.139 446.565 240.335 445.486 240.307C445.002 240.3 444.519 240.258 444.05 240.146C442.502 239.796 441.038 238.745 440.61 237.225C440.057 235.263 441.332 233.26 442.74 231.789C446.502 227.852 451.748 225.386 457.17 224.987C462.599 224.595 468.148 226.276 472.435 229.625C477.098 233.256 475.278 235.67 475.727 239.326C476 241.533 476.518 243.271 478.074 244.952C479.692 246.703 481.751 247.978 483.517 249.582C485.275 251.194 486.795 253.338 486.767 255.719C486.732 257.806 485.534 259.957 486.354 261.87C487.307 264.083 490.256 264.475 492.106 266.017C494.06 267.649 494.592 270.618 493.738 273.014Z" fill="#111228"/>
<path d="M464.65 248.858C464.58 248.893 464.545 248.914 464.53 248.914C464.317 249.309 463.554 249.414 463.18 249.046C462.721 248.602 462.686 247.887 462.618 247.25C462.101 242.758 457.808 239.02 453.29 239.138C451.714 239.18 450.178 239.628 448.639 239.978C447.57 240.218 446.472 240.425 445.393 240.406C444.324 245.474 444.424 257.474 449.614 261.273C450.398 261.854 451.305 262.238 452.336 262.383C453.237 262.507 454.175 262.378 454.255 262.338C455.377 262.141 456.629 261.706 458.33 260.564C459.729 259.657 460.869 258.588 461.918 257.554C462.9 256.555 464.119 255.094 464.227 254.928C464.324 254.808 464.373 254.738 464.373 254.738C464.373 254.738 467.97 253.528 468.046 250.277C468.11 247.39 465.285 248.558 464.65 248.858Z" fill="#FFDAD9"/>
<path d="M464.584 248.62L464.577 248.606C464.577 248.614 464.585 248.626 464.578 248.641C464.578 248.633 464.577 248.627 464.584 248.62Z" fill="#FFDAD9"/>
<path d="M451.574 246.397C451.663 247.198 451.806 249.386 451.582 250.258C451.496 250.583 451.322 250.915 451.106 251.165C450.548 251.814 450.238 252.258 451.418 253.423C451.144 253.258 450.881 253.07 450.657 252.817C450.068 252.09 450.327 251.6 450.808 250.93C450.999 250.69 451.122 250.442 451.197 250.152C451.382 249.488 451.343 247.961 451.574 246.397Z" fill="#111228"/>
<path d="M452.784 255.266C452.784 256.486 451.922 257.474 450.862 257.474C449.806 257.474 448.944 256.486 448.944 255.266C448.944 255.244 448.95 255.227 448.95 255.21C450.026 255.463 451.3 255.463 452.778 255.21C452.778 255.227 452.784 255.244 452.784 255.266Z" fill="white"/>
<path d="M480.45 273.859C478.237 269.62 469.978 268.156 465.514 267.734C462.626 267.462 455.873 267.42 453.014 267.908C449.284 268.545 442.796 271.49 441.016 274.913C437.768 281.158 436.676 305.894 436.676 305.894L432.441 336.63C433.543 343.671 485.822 341.19 484.88 333.714C484.88 333.714 479.831 311.238 480.186 305.874C480.744 297.426 484.05 280.758 480.45 273.859Z" fill="#FADF68"/>
<path d="M465.514 267.737C465.514 267.737 462.41 274.763 456.663 273.857C452.784 273.247 452.603 267.984 452.603 267.984C452.603 267.984 454.707 266.479 454.861 264.391C454.97 262.948 454.934 261.252 454.685 259.567C454.658 259.397 454.63 259.226 454.602 259.05C454.394 257.798 458.234 256.49 460.8 255.754C461.734 255.49 463.109 255.172 463.839 255.101C464.098 255.074 464.338 254.809 464.338 254.809C464.338 254.809 463.558 264.556 465.514 267.737Z" fill="#FFDAD9"/>
<path d="M458.46 313.574C458.193 314.653 458.142 315.727 458.282 316.759C458.746 320.113 461.188 323.001 464.675 323.863C467.922 324.666 471.196 323.49 473.214 321.096C473.413 320.857 473.598 320.606 473.776 320.354C477.968 314.369 481.006 298.885 481.006 298.885L467.163 293.178L459.455 311.182C459.454 311.19 459.443 311.196 459.442 311.204C459.009 311.921 458.671 312.719 458.46 313.574Z" fill="#FFDAD9"/>
<path d="M484.893 301.166C484.893 302.694 465.514 294.72 465.514 293.192C465.514 293.192 467.305 286.17 468.607 282.461C470.776 276.283 473.481 270.983 477.165 270.98C478.639 270.978 482.302 273.754 484.893 278.533C487.161 282.716 484.893 301.166 484.893 301.166Z" fill="#EAC250"/>
<path d="M427.573 318.735C427.454 321.14 429.307 323.194 431.712 323.314C431.712 323.314 441.087 324.904 465.794 324.805L465.866 324.808C470.51 324.998 474.444 321.412 474.674 316.762C474.906 312.095 471.306 308.112 466.632 307.881C466.52 307.875 466.416 307.87 466.304 307.873L466.306 307.825L465.911 307.878C465.398 307.892 464.898 307.956 464.412 308.06L431.815 314.588C429.554 314.644 427.686 316.442 427.573 318.735Z" fill="#FFDAD9"/>
<path d="M420.976 319.403L380.818 277.566L372.256 286.21L412.414 328.046C414.805 330.414 418.655 330.39 421.017 328.006C423.378 325.622 423.366 321.771 420.976 319.403Z" fill="#111228"/>
<path d="M386.81 280.631L380.89 274.766C380.413 274.294 379.643 274.298 379.171 274.775L369.422 284.618C368.95 285.094 368.953 285.863 369.43 286.335L375.35 292.2C375.827 292.672 376.597 292.669 377.069 292.192L386.818 282.35C387.29 281.873 387.287 281.103 386.81 280.631Z" fill="#B2C7FF"/>
<path d="M378.835 227.258C362.963 211.528 337.362 211.663 321.646 227.528C305.929 243.393 306.043 268.994 321.915 284.718C337.78 300.434 363.395 300.313 379.112 284.448C394.829 268.583 394.707 242.969 378.835 227.258ZM373.846 279.227C361.005 292.186 340.095 292.286 327.136 279.451C314.17 266.624 314.078 245.707 326.919 232.735C339.74 219.783 360.669 219.684 373.628 232.525C386.581 245.359 386.673 266.274 373.846 279.227Z" fill="#D1DEFF"/>
<path d="M417.913 321.043C421.813 329.972 432.078 323.656 432.749 323.231C432.758 323.224 432.765 323.225 432.782 323.21C434.129 322.569 435.109 321.239 435.244 319.645C435.445 317.277 433.711 315.18 431.347 314.939C431.34 314.93 431.332 314.93 431.324 314.93C430.914 314.654 426.52 311.744 425.404 313.448C424.665 314.59 426.006 315.161 427.033 315.449C423.894 314.782 414.537 313.314 417.913 321.043Z" fill="#FFDAD9"/>
<path d="M447.846 245.36C447.964 245.17 448.122 245.006 448.288 244.846C448.676 244.52 449.292 244.548 449.639 244.997C449.764 245.193 449.864 245.398 449.928 245.613C449.728 245.493 449.578 245.35 449.428 245.22C449.124 245.025 448.878 244.945 448.434 245.115C448.256 245.209 448.07 245.297 447.846 245.36Z" fill="#111228"/>
<path d="M454.304 245.186C454.422 244.996 454.581 244.831 454.746 244.672C455.133 244.347 455.75 244.371 456.098 244.822C456.223 245.018 456.322 245.223 456.386 245.438C456.186 245.318 456.036 245.176 455.886 245.046C455.582 244.851 455.337 244.77 454.893 244.941C454.715 245.034 454.529 245.122 454.304 245.186Z" fill="#111228"/>
<path d="M455.91 247.112C455.817 247.761 455.372 248.227 454.905 248.162C454.443 248.101 454.141 247.524 454.229 246.876C454.322 246.234 454.773 245.761 455.234 245.826C455.702 245.892 456.004 246.464 455.91 247.112Z" fill="#111228"/>
<path d="M449.279 247.112C449.191 247.761 448.741 248.227 448.279 248.162C447.812 248.101 447.51 247.524 447.603 246.876C447.691 246.234 448.142 245.761 448.609 245.826C449.07 245.892 449.373 246.464 449.279 247.112Z" fill="#111228"/>
<path d="M401.628 296.079C401.628 296.079 395.958 292.368 395.751 294.739C395.545 297.11 400.33 297.894 400.33 297.894L404.668 302.414L401.628 296.079Z" fill="#FFDAD9"/>
</g>
<defs>
<linearGradient id="paint0_linear_2_526" x1="301.6" y1="120" x2="304.21" y2="361.098" gradientUnits="userSpaceOnUse">
<stop stop-color="#CEDCF9" stop-opacity="0"/>
<stop offset="0.5" stop-color="#C8D7FC" stop-opacity="0.5"/>
<stop offset="1" stop-color="#C3D2FF"/>
</linearGradient>
<linearGradient id="paint1_linear_2_526" x1="305.6" y1="504.8" x2="305.6" y2="397.176" gradientUnits="userSpaceOnUse">
<stop stop-color="#CEDCF9" stop-opacity="0"/>
<stop offset="0.5" stop-color="#C8D7FC" stop-opacity="0.5"/>
<stop offset="1" stop-color="#C3D2FF"/>
</linearGradient>
<linearGradient id="paint2_linear_2_526" x1="459.683" y1="202.538" x2="417.437" y2="192.386" gradientUnits="userSpaceOnUse">
<stop stop-color="#909EFF"/>
<stop offset="0.5" stop-color="#7C8AF1"/>
<stop offset="1" stop-color="#6977E3"/>
</linearGradient>
<linearGradient id="paint3_linear_2_526" x1="453.614" y1="177.479" x2="471.175" y2="168.523" gradientUnits="userSpaceOnUse">
<stop stop-color="#909EFF"/>
<stop offset="0.5" stop-color="#7C8AF1"/>
<stop offset="1" stop-color="#6977E3"/>
</linearGradient>
<linearGradient id="paint4_linear_2_526" x1="181.6" y1="179.999" x2="181.6" y2="194.368" gradientUnits="userSpaceOnUse">
<stop stop-color="#FADF68"/>
<stop offset="0.5" stop-color="#F2D15C"/>
<stop offset="1" stop-color="#EAC250"/>
</linearGradient>
<linearGradient id="paint5_linear_2_526" x1="180.8" y1="157.592" x2="182.023" y2="157.592" gradientUnits="userSpaceOnUse">
<stop stop-color="#FADF68"/>
<stop offset="0.5" stop-color="#F2D15C"/>
<stop offset="1" stop-color="#EAC250"/>
</linearGradient>
<linearGradient id="paint6_linear_2_526" x1="171.998" y1="159.992" x2="174.693" y2="159.992" gradientUnits="userSpaceOnUse">
<stop stop-color="#FADF68"/>
<stop offset="0.5" stop-color="#F2D15C"/>
<stop offset="1" stop-color="#EAC250"/>
</linearGradient>
<linearGradient id="paint7_linear_2_526" x1="165.597" y1="165.593" x2="169.367" y2="165.593" gradientUnits="userSpaceOnUse">
<stop stop-color="#FADF68"/>
<stop offset="0.5" stop-color="#F2D15C"/>
<stop offset="1" stop-color="#EAC250"/>
</linearGradient>
<linearGradient id="paint8_linear_2_526" x1="193.602" y1="165.593" x2="197.372" y2="165.593" gradientUnits="userSpaceOnUse">
<stop stop-color="#FADF68"/>
<stop offset="0.5" stop-color="#F2D15C"/>
<stop offset="1" stop-color="#EAC250"/>
</linearGradient>
<linearGradient id="paint9_linear_2_526" x1="188.001" y1="159.992" x2="190.695" y2="159.992" gradientUnits="userSpaceOnUse">
<stop stop-color="#FADF68"/>
<stop offset="0.5" stop-color="#F2D15C"/>
<stop offset="1" stop-color="#EAC250"/>
</linearGradient>
<linearGradient id="paint10_linear_2_526" x1="269.6" y1="235.2" x2="263.326" y2="255.182" gradientUnits="userSpaceOnUse">
<stop stop-color="#909EFF"/>
<stop offset="0.5" stop-color="#7C8AF1"/>
<stop offset="1" stop-color="#6977E3"/>
</linearGradient>
<linearGradient id="paint11_linear_2_526" x1="286.4" y1="250.4" x2="269.902" y2="252.607" gradientUnits="userSpaceOnUse">
<stop stop-color="#D1DEFF"/>
<stop offset="0.5" stop-color="#C2D2FF"/>
<stop offset="1" stop-color="#B2C7FF"/>
</linearGradient>
<linearGradient id="paint12_linear_2_526" x1="273.6" y1="274.4" x2="266.746" y2="261.156" gradientUnits="userSpaceOnUse">
<stop stop-color="#FADF68"/>
<stop offset="0.5" stop-color="#F2D15C"/>
<stop offset="1" stop-color="#EAC250"/>
</linearGradient>
<linearGradient id="paint13_linear_2_526" x1="244" y1="272" x2="258.174" y2="252.018" gradientUnits="userSpaceOnUse">
<stop stop-color="#3DCFA4"/>
<stop offset="0.03" stop-color="#3CCFA3"/>
<stop offset="0.06" stop-color="#3CCEA3"/>
<stop offset="0.53" stop-color="#36C59B"/>
<stop offset="1" stop-color="#30BB93"/>
</linearGradient>
<linearGradient id="paint14_linear_2_526" x1="240" y1="231.2" x2="257.543" y2="257.689" gradientUnits="userSpaceOnUse">
<stop stop-color="#F34B6D"/>
<stop offset="0.71" stop-color="#EB466A"/>
<stop offset="1" stop-color="#E24067"/>
</linearGradient>
</defs>
</svg>
