<svg width="404" height="404" viewBox="0 0 404 404" fill="none" xmlns="http://www.w3.org/2000/svg">
<path d="M368.822 318.346L383.009 209.859C385.91 187.68 370.282 167.35 348.103 164.449L268.778 154.076C246.599 151.175 226.269 166.803 223.368 188.982L209.181 297.469C206.281 319.648 221.908 339.978 244.088 342.879L323.412 353.252C345.592 356.153 365.922 340.525 368.822 318.346Z" fill="#4E71FF" stroke="#9F9F9F"/>
<path d="M194.342 110.031L200.814 60.6181C203.719 38.4395 188.095 18.1139 165.915 15.2182L86.5885 4.86169C64.4085 1.96599 44.0743 17.597 41.169 39.7757L34.6963 89.1889C31.7911 111.368 47.4154 131.693 69.5953 134.589L148.922 144.945C171.102 147.841 191.436 132.21 194.342 110.031Z" fill="#4E71FF" stroke="#9F9F9F"/>
<path d="M362.822 364.223L369.285 314.808C372.185 292.629 356.557 272.299 334.378 269.399L255.054 259.025C232.874 256.125 212.544 271.752 209.644 293.932L203.182 343.346C200.281 365.526 215.909 385.855 238.088 388.756L317.413 399.129C339.592 402.03 359.922 386.402 362.822 364.223Z" fill="#4E71FF" stroke="#9F9F9F"/>
<path d="M180.639 214.958L194.631 107.966C197.531 85.7872 181.904 65.4573 159.725 62.5568L80.3999 52.1833C58.2206 49.2828 37.8907 64.9105 34.9903 87.0898L20.9987 194.081C18.0982 216.26 33.7259 236.59 55.9052 239.491L135.23 249.864C157.409 252.765 177.739 237.137 180.639 214.958Z" fill="#B6BFD1" stroke="#9F9F9F"/>
</svg>
