<svg width="532" height="409" viewBox="0 0 532 409" fill="none" xmlns="http://www.w3.org/2000/svg">
<mask id="mask0_2_2203" style="mask-type:luminance" maskUnits="userSpaceOnUse" x="364" y="34" width="168" height="341">
<path d="M364.85 34.0952H531.65V374.482H364.85V34.0952Z" fill="white"/>
</mask>
<g mask="url(#mask0_2_2203)">
<g opacity="0.64">
<g opacity="0.64" filter="url(#filter0_f_2_2203)">
<path d="M517.75 54.9354V353.642C517.75 357.476 514.636 360.589 510.8 360.589H385.7C381.864 360.589 378.75 357.476 378.75 353.642V54.9354C378.75 51.1016 381.864 47.9888 385.7 47.9888H510.8C514.636 47.9888 517.75 51.1016 517.75 54.9354Z" fill="black"/>
</g>
<path d="M517.75 49.1464V347.853C517.75 351.687 514.636 354.8 510.8 354.8H385.7C381.864 354.8 378.75 351.687 378.75 347.853V49.1464C378.75 45.3125 381.864 42.1997 385.7 42.1997H510.8C514.636 42.1997 517.75 45.3125 517.75 49.1464Z" fill="#ABB2B9"/>
<path d="M517.75 49.2187V111.739H378.75V49.2187H517.75ZM517.75 49.1464V104.72C517.75 108.554 514.636 111.666 510.8 111.666H385.7C381.864 111.666 378.75 108.554 378.75 104.72V49.1464C378.75 45.3125 381.864 42.1997 385.7 42.1997H510.8C514.636 42.1997 517.75 45.3125 517.75 49.1464Z" fill="#D5D8DC"/>
<mask id="mask1_2_2203" style="mask-type:luminance" maskUnits="userSpaceOnUse" x="378" y="129" width="140" height="24">
<path d="M378.75 129.033H517.75V152.189H378.75V129.033Z" fill="white"/>
</mask>
<g mask="url(#mask1_2_2203)">
<path d="M483 139.164V142.058H413.5V139.164H483Z" fill="#2D3E50"/>
</g>
<mask id="mask2_2_2203" style="mask-type:luminance" maskUnits="userSpaceOnUse" x="378" y="175" width="140" height="24">
<path d="M378.75 175.344H517.75V198.5H378.75V175.344Z" fill="white"/>
</mask>
<g mask="url(#mask2_2_2203)">
<path d="M483 185.475V188.369H413.5V185.475H483Z" fill="#2D3E50"/>
</g>
<mask id="mask3_2_2203" style="mask-type:luminance" maskUnits="userSpaceOnUse" x="378" y="221" width="140" height="24">
<path d="M378.75 221.655H517.75V244.811H378.75V221.655Z" fill="white"/>
</mask>
<g mask="url(#mask3_2_2203)">
<path d="M483 231.786V234.68H413.5V231.786H483Z" fill="#2D3E50"/>
</g>
<mask id="mask4_2_2203" style="mask-type:luminance" maskUnits="userSpaceOnUse" x="378" y="267" width="140" height="25">
<path d="M378.75 267.966H517.75V291.122H378.75V267.966Z" fill="white"/>
</mask>
<g mask="url(#mask4_2_2203)">
<path d="M483 278.097V280.991H413.5V278.097H483Z" fill="#2D3E50"/>
</g>
</g>
</g>
<mask id="mask5_2_2203" style="mask-type:luminance" maskUnits="userSpaceOnUse" x="413" y="42" width="70" height="70">
<path d="M413.5 42.1997H483V111.666H413.5V42.1997Z" fill="white"/>
</mask>
<g mask="url(#mask5_2_2203)">
<g opacity="0.64">
<path d="M448.125 59.5664C451.961 59.5664 455.075 62.6792 455.075 66.5131C455.075 70.3469 451.961 73.4597 448.125 73.4597C444.289 73.4597 441.175 70.3469 441.175 66.5131C441.175 62.6792 444.289 59.5664 448.125 59.5664Z" fill="#2D3E50"/>
<path d="M436.087 80.4062C439.923 80.4062 443.037 83.5191 443.037 87.3529C443.037 91.1868 439.923 94.2996 436.087 94.2996C432.252 94.2996 429.137 91.1868 429.137 87.3529C429.137 83.5191 432.252 80.4062 436.087 80.4062Z" fill="#2D3E50"/>
<path d="M460.163 80.4062C463.999 80.4062 467.113 83.5191 467.113 87.3529C467.113 91.1868 463.999 94.2996 460.163 94.2996C456.327 94.2996 453.213 91.1868 453.213 87.3529C453.213 83.5191 456.327 80.4062 460.163 80.4062Z" fill="#2D3E50"/>
</g>
</g>
<mask id="mask6_2_2203" style="mask-type:luminance" maskUnits="userSpaceOnUse" x="191" y="34" width="167" height="341">
<path d="M191.1 34.0952H357.9V374.482H191.1V34.0952Z" fill="white"/>
</mask>
<g mask="url(#mask6_2_2203)">
<g opacity="0.64">
<g opacity="0.64" filter="url(#filter1_f_2_2203)">
<path d="M344 54.9354V353.642C344 357.476 340.886 360.589 337.05 360.589H211.95C208.114 360.589 205 357.476 205 353.642V54.9354C205 51.1016 208.114 47.9888 211.95 47.9888H337.05C340.886 47.9888 344 51.1016 344 54.9354Z" fill="black"/>
</g>
<path d="M344 49.1464V347.853C344 351.687 340.886 354.8 337.05 354.8H211.95C208.114 354.8 205 351.687 205 347.853V49.1464C205 45.3125 208.114 42.1997 211.95 42.1997H337.05C340.886 42.1997 344 45.3125 344 49.1464Z" fill="#ABB2B9"/>
<path d="M344 49.2187V111.739H205V49.2187H344ZM344 49.1464V104.72C344 108.554 340.886 111.666 337.05 111.666H211.95C208.114 111.666 205 108.554 205 104.72V49.1464C205 45.3125 208.114 42.1997 211.95 42.1997H337.05C340.886 42.1997 344 45.3125 344 49.1464Z" fill="#D5D8DC"/>
<mask id="mask7_2_2203" style="mask-type:luminance" maskUnits="userSpaceOnUse" x="205" y="129" width="139" height="24">
<path d="M205 129.033H344V152.189H205V129.033Z" fill="white"/>
</mask>
<g mask="url(#mask7_2_2203)">
<path d="M309.25 139.164V142.058H239.75V139.164H309.25Z" fill="#2D3E50"/>
</g>
<mask id="mask8_2_2203" style="mask-type:luminance" maskUnits="userSpaceOnUse" x="205" y="175" width="139" height="24">
<path d="M205 175.344H344V198.5H205V175.344Z" fill="white"/>
</mask>
<g mask="url(#mask8_2_2203)">
<path d="M309.25 185.475V188.369H239.75V185.475H309.25Z" fill="#2D3E50"/>
</g>
<mask id="mask9_2_2203" style="mask-type:luminance" maskUnits="userSpaceOnUse" x="205" y="221" width="139" height="24">
<path d="M205 221.655H344V244.811H205V221.655Z" fill="white"/>
</mask>
<g mask="url(#mask9_2_2203)">
<path d="M309.25 231.786V234.68H239.75V231.786H309.25Z" fill="#2D3E50"/>
</g>
<mask id="mask10_2_2203" style="mask-type:luminance" maskUnits="userSpaceOnUse" x="205" y="267" width="139" height="25">
<path d="M205 267.966H344V291.122H205V267.966Z" fill="white"/>
</mask>
<g mask="url(#mask10_2_2203)">
<path d="M309.25 278.097V280.991H239.75V278.097H309.25Z" fill="#2D3E50"/>
</g>
</g>
</g>
<mask id="mask11_2_2203" style="mask-type:luminance" maskUnits="userSpaceOnUse" x="239" y="42" width="71" height="70">
<path d="M239.75 42.1997H309.25V111.666H239.75V42.1997Z" fill="white"/>
</mask>
<g mask="url(#mask11_2_2203)">
<g opacity="0.64">
<path d="M284.329 60.1621C288.164 60.1621 291.279 63.2749 291.279 67.1088C291.279 70.9426 288.164 74.0554 284.329 74.0554C280.493 74.0554 277.379 70.9426 277.379 67.1088C277.379 63.2749 280.493 60.1621 284.329 60.1621Z" fill="#2D3E50"/>
<path d="M264.671 79.8105C268.507 79.8105 271.621 82.9233 271.621 86.7572C271.621 90.5911 268.507 93.7039 264.671 93.7039C260.836 93.7039 257.721 90.5911 257.721 86.7572C257.721 82.9233 260.836 79.8105 264.671 79.8105Z" fill="#2D3E50"/>
</g>
</g>
<mask id="mask12_2_2203" style="mask-type:luminance" maskUnits="userSpaceOnUse" x="0" y="0" width="201" height="409">
<path d="M0.669983 0.0566406H200.83V408.521H0.669983V0.0566406Z" fill="white"/>
</mask>
<g mask="url(#mask12_2_2203)">
<g opacity="0.64" filter="url(#filter2_f_2_2203)">
<path d="M184.15 25.0645V383.513C184.15 388.113 180.413 391.849 175.81 391.849H25.69C21.0871 391.849 17.35 388.113 17.35 383.513V25.0645C17.35 20.4639 21.0871 16.7285 25.69 16.7285H175.81C180.413 16.7285 184.15 20.4639 184.15 25.0645Z" fill="black"/>
</g>
<path d="M184.15 18.1177V376.566C184.15 381.166 180.413 384.902 175.81 384.902H25.69C21.0871 384.902 17.35 381.166 17.35 376.566V18.1177C17.35 13.5171 21.0871 9.78174 25.69 9.78174H175.81C180.413 9.78174 184.15 13.5171 184.15 18.1177Z" fill="#FDAFB3"/>
<path d="M184.15 18.2046V93.2286H17.35V18.2046H184.15ZM184.15 18.1177V84.8057C184.15 89.4064 180.413 93.1417 175.81 93.1417H25.69C21.0871 93.1417 17.35 89.4064 17.35 84.8057V18.1177C17.35 13.5171 21.0871 9.78174 25.69 9.78174H175.81C180.413 9.78174 184.15 13.5171 184.15 18.1177Z" fill="#FED7D9"/>
<mask id="mask13_2_2203" style="mask-type:luminance" maskUnits="userSpaceOnUse" x="17" y="113" width="168" height="29">
<path d="M17.35 113.982H184.15V141.769H17.35V113.982Z" fill="white"/>
</mask>
<g mask="url(#mask13_2_2203)">
<path d="M142.45 126.139V129.612H59.05V126.139H142.45Z" fill="white"/>
</g>
<mask id="mask14_2_2203" style="mask-type:luminance" maskUnits="userSpaceOnUse" x="17" y="169" width="168" height="29">
<path d="M17.35 169.555H184.15V197.342H17.35V169.555Z" fill="white"/>
</mask>
<g mask="url(#mask14_2_2203)">
<path d="M142.45 181.712V185.185H59.05V181.712H142.45Z" fill="white"/>
</g>
<mask id="mask15_2_2203" style="mask-type:luminance" maskUnits="userSpaceOnUse" x="17" y="225" width="168" height="28">
<path d="M17.35 225.128H184.15V252.915H17.35V225.128Z" fill="white"/>
</mask>
<g mask="url(#mask15_2_2203)">
<path d="M142.45 237.285V240.758H59.05V237.285H142.45Z" fill="white"/>
</g>
<mask id="mask16_2_2203" style="mask-type:luminance" maskUnits="userSpaceOnUse" x="17" y="280" width="168" height="29">
<path d="M17.35 280.702H184.15V308.488H17.35V280.702Z" fill="white"/>
</mask>
<g mask="url(#mask16_2_2203)">
<path d="M142.45 292.858V296.332H59.05V292.858H142.45Z" fill="white"/>
</g>
<mask id="mask17_2_2203" style="mask-type:luminance" maskUnits="userSpaceOnUse" x="35" y="331" width="132" height="34">
<path d="M35.42 331.065H166.08V364.409H35.42V331.065Z" fill="white"/>
</mask>
<g mask="url(#mask17_2_2203)">
<g opacity="0.36" filter="url(#filter3_f_2_2203)">
<path d="M163.3 339.401V356.073C163.3 359.14 160.809 361.63 157.74 361.63H43.76C40.6914 361.63 38.2 359.14 38.2 356.073V339.401C38.2 336.334 40.6914 333.843 43.76 333.843H157.74C160.809 333.843 163.3 336.334 163.3 339.401Z" fill="black"/>
</g>
<path d="M163.3 338.011V354.683C163.3 357.751 160.809 360.241 157.74 360.241H43.76C40.6914 360.241 38.2 357.751 38.2 354.683V338.011C38.2 334.944 40.6914 332.454 43.76 332.454H157.74C160.809 332.454 163.3 334.944 163.3 338.011Z" fill="#F02D3A"/>
<path d="M135.5 344.611V348.084H66V344.611H135.5Z" fill="white"/>
</g>
</g>
<mask id="mask18_2_2203" style="mask-type:luminance" maskUnits="userSpaceOnUse" x="59" y="9" width="84" height="85">
<path d="M59.05 9.78174H142.45V93.1417H59.05V9.78174Z" fill="white"/>
</mask>
<g mask="url(#mask18_2_2203)">
<path d="M100.75 43.126C105.353 43.126 109.09 46.8613 109.09 51.462C109.09 56.0626 105.353 59.798 100.75 59.798C96.1471 59.798 92.41 56.0626 92.41 51.462C92.41 46.8613 96.1471 43.126 100.75 43.126Z" fill="#2D3E50"/>
</g>
<mask id="mask19_2_2203" style="mask-type:luminance" maskUnits="userSpaceOnUse" x="92" y="173" width="47" height="51">
<path d="M92.6417 173.897H138.975V223.103H92.6417V173.897Z" fill="white"/>
</mask>
<g mask="url(#mask19_2_2203)">
<path d="M102.151 209.472C101.34 208.43 100.327 206.317 98.5602 203.683C97.5467 202.236 95.0563 199.486 94.3033 198.068C93.7618 197.205 93.6026 196.157 93.869 195.173C94.3236 193.304 96.0988 192.065 98.01 192.279C99.4898 192.577 100.848 193.301 101.919 194.363C102.667 195.066 103.356 195.83 103.975 196.649C104.439 197.228 104.555 197.46 105.076 198.126C105.597 198.791 105.945 199.457 105.684 198.473C105.481 197.026 105.134 194.594 104.641 192.424C104.265 190.774 104.178 190.513 103.831 189.269C103.483 188.024 103.28 186.982 102.904 185.564C102.559 184.172 102.29 182.759 102.093 181.338C101.728 179.52 101.995 177.63 102.846 175.983C103.857 175.031 105.342 174.782 106.611 175.346C107.888 176.287 108.838 177.604 109.333 179.109C110.091 180.962 110.598 182.91 110.839 184.898C111.302 187.792 112.2 192.018 112.229 192.887C112.229 191.816 112.026 189.558 112.229 188.545C112.428 187.489 113.164 186.612 114.169 186.229C115.032 185.966 115.944 185.905 116.833 186.056C117.731 186.244 118.527 186.759 119.063 187.503C119.735 189.191 120.105 190.985 120.163 192.8C120.241 191.211 120.514 189.636 120.974 188.111C121.458 187.431 122.164 186.939 122.972 186.722C123.931 186.548 124.909 186.548 125.868 186.722C126.653 186.985 127.339 187.48 127.837 188.14C128.451 189.674 128.822 191.295 128.938 192.945C128.938 193.35 129.14 191.816 129.777 190.803C130.107 189.821 130.939 189.089 131.955 188.884C132.971 188.678 134.02 189.031 134.706 189.81C135.392 190.589 135.61 191.674 135.279 192.655C135.279 194.537 135.279 194.45 135.279 195.723C135.279 196.997 135.279 198.126 135.279 199.197C135.175 200.89 134.941 202.574 134.584 204.233C134.081 205.7 133.38 207.093 132.499 208.372C131.092 209.935 129.931 211.701 129.053 213.611C128.836 214.56 128.738 215.533 128.764 216.505C128.761 217.406 128.877 218.3 129.111 219.168C127.927 219.293 126.734 219.293 125.549 219.168C124.42 218.995 123.03 216.737 122.654 216.042C122.468 215.669 122.086 215.434 121.669 215.434C121.252 215.434 120.87 215.669 120.684 216.042C120.047 217.142 118.628 219.139 117.644 219.255C115.704 219.487 111.707 219.255 108.551 219.255C108.551 219.255 109.072 216.361 107.885 215.319C106.698 214.277 105.481 213.061 104.584 212.251L102.151 209.472Z" fill="white"/>
<path d="M102.151 209.472C101.34 208.43 100.327 206.317 98.5602 203.683C97.5467 202.236 95.0563 199.486 94.3033 198.068C93.7618 197.205 93.6026 196.157 93.869 195.173C94.3236 193.304 96.0988 192.065 98.01 192.279C99.4898 192.577 100.848 193.301 101.919 194.363C102.667 195.066 103.356 195.83 103.975 196.649C104.439 197.228 104.555 197.46 105.076 198.126C105.597 198.791 105.945 199.457 105.684 198.473C105.481 197.026 105.134 194.594 104.641 192.424C104.265 190.774 104.178 190.513 103.831 189.269C103.483 188.024 103.28 186.982 102.904 185.564C102.559 184.172 102.29 182.759 102.093 181.338C101.728 179.52 101.995 177.63 102.846 175.983C103.857 175.031 105.342 174.782 106.611 175.346C107.888 176.287 108.838 177.604 109.333 179.109C110.091 180.962 110.598 182.91 110.839 184.898C111.302 187.792 112.2 192.018 112.229 192.887C112.229 191.816 112.026 189.558 112.229 188.545C112.428 187.489 113.164 186.612 114.169 186.229C115.032 185.966 115.944 185.905 116.833 186.056C117.731 186.244 118.527 186.759 119.063 187.503C119.735 189.191 120.105 190.985 120.163 192.8C120.241 191.211 120.514 189.636 120.974 188.111C121.458 187.431 122.164 186.939 122.972 186.722C123.931 186.548 124.909 186.548 125.868 186.722C126.653 186.985 127.339 187.48 127.837 188.14C128.451 189.674 128.822 191.295 128.938 192.945C128.938 193.35 129.14 191.816 129.777 190.803C130.107 189.821 130.939 189.089 131.955 188.884C132.971 188.678 134.02 189.031 134.706 189.81C135.392 190.589 135.61 191.674 135.279 192.655C135.279 194.537 135.279 194.45 135.279 195.723C135.279 196.997 135.279 198.126 135.279 199.197C135.175 200.89 134.941 202.574 134.584 204.233C134.081 205.7 133.38 207.093 132.499 208.372C131.092 209.935 129.931 211.701 129.053 213.611C128.836 214.56 128.738 215.533 128.764 216.505C128.761 217.406 128.877 218.3 129.111 219.168C127.927 219.293 126.734 219.293 125.549 219.168C124.42 218.995 123.03 216.737 122.654 216.042C122.468 215.669 122.086 215.434 121.669 215.434C121.252 215.434 120.87 215.669 120.684 216.042C120.047 217.142 118.628 219.139 117.644 219.255C115.704 219.487 111.707 219.255 108.551 219.255C108.551 219.255 109.072 216.361 107.885 215.319C106.698 214.277 105.481 213.061 104.584 212.251L102.151 209.472Z" stroke="black" stroke-width="7.5" stroke-linecap="round" stroke-linejoin="round"/>
<path d="M126.708 211.052V201.061C126.708 200.461 126.221 199.978 125.622 199.978C125.022 199.978 124.536 200.461 124.536 201.061V211.052C124.536 211.651 125.022 212.135 125.622 212.135C126.221 212.135 126.708 211.651 126.708 211.052Z" fill="black"/>
<path d="M120.974 211.049L120.916 201.052C120.913 200.456 120.424 199.975 119.824 199.978C119.225 199.981 118.741 200.467 118.744 201.063L118.802 211.061C118.805 211.657 119.294 212.138 119.894 212.135C120.493 212.132 120.977 211.646 120.974 211.049Z" fill="black"/>
<path d="M112.953 201.075L113.01 211.049C113.013 211.651 113.503 212.138 114.102 212.135C114.702 212.132 115.185 211.64 115.182 211.038L115.124 201.063C115.122 200.461 114.632 199.975 114.033 199.978C113.433 199.981 112.95 200.473 112.953 201.075Z" fill="black"/>
</g>
<defs>
<filter id="filter0_f_2_2203" x="349.95" y="19.1888" width="196.6" height="370.2" filterUnits="userSpaceOnUse" color-interpolation-filters="sRGB">
<feFlood flood-opacity="0" result="BackgroundImageFix"/>
<feBlend mode="normal" in="SourceGraphic" in2="BackgroundImageFix" result="shape"/>
<feGaussianBlur stdDeviation="14.4" result="effect1_foregroundBlur_2_2203"/>
</filter>
<filter id="filter1_f_2_2203" x="176.2" y="19.1888" width="196.6" height="370.2" filterUnits="userSpaceOnUse" color-interpolation-filters="sRGB">
<feFlood flood-opacity="0" result="BackgroundImageFix"/>
<feBlend mode="normal" in="SourceGraphic" in2="BackgroundImageFix" result="shape"/>
<feGaussianBlur stdDeviation="14.4" result="effect1_foregroundBlur_2_2203"/>
</filter>
<filter id="filter2_f_2_2203" x="-17.21" y="-17.8315" width="235.92" height="444.24" filterUnits="userSpaceOnUse" color-interpolation-filters="sRGB">
<feFlood flood-opacity="0" result="BackgroundImageFix"/>
<feBlend mode="normal" in="SourceGraphic" in2="BackgroundImageFix" result="shape"/>
<feGaussianBlur stdDeviation="17.28" result="effect1_foregroundBlur_2_2203"/>
</filter>
<filter id="filter3_f_2_2203" x="32.44" y="328.083" width="136.62" height="39.3066" filterUnits="userSpaceOnUse" color-interpolation-filters="sRGB">
<feFlood flood-opacity="0" result="BackgroundImageFix"/>
<feBlend mode="normal" in="SourceGraphic" in2="BackgroundImageFix" result="shape"/>
<feGaussianBlur stdDeviation="2.88" result="effect1_foregroundBlur_2_2203"/>
</filter>
</defs>
</svg>
